<svg
  width="24"
  height="24"
  viewBox="0 0 24 24"
  fill="none"
  xmlns="http://www.w3.org/2000/svg"
>
  <path
    d="M21.8781 7.79079C21.958 8.18138 22 8.58579 22 9C22 8.99998 22 9.00002 22 9C22 16.3511 15.3285 19.8061 12.884 20.8254C12.3145 21.0628 11.6855 21.0628 11.116 20.8254C10.8104 20.698 10.4388 20.5325 10.0225 20.3261C7.10783 18.8815 2 15.4323 2 9.00009C2 5.68638 4.68629 3 8 3C9.53671 3 10.9385 3.57771 12 4.52779C13.0615 3.57771 14.4633 3 16 3C17.2949 3 18.494 3.41019 19.4744 4.10772C20.6893 4.9721 21.5685 6.27771 21.8781 7.79079Z"
    fill="currentColor"
  />
</svg>
